<svg width="23" height="20" viewBox="0 0 23 20" fill="none" xmlns="http://www.w3.org/2000/svg">
<path d="M20.8627 0L12.6305 6.25128L14.1612 2.56667L20.8627 0Z" fill="#E17726" stroke="#E17726" stroke-linecap="round" stroke-linejoin="round"/>
<path d="M1.87552 0L10.0351 6.30769L8.57703 2.56667L1.87552 0Z" fill="#E27625" stroke="#E27625" stroke-linecap="round" stroke-linejoin="round"/>
<path d="M17.899 14.4922L15.7095 17.9255L20.3993 19.2512L21.7421 14.5665L17.899 14.4922Z" fill="#E27625" stroke="#E27625" stroke-linecap="round" stroke-linejoin="round"/>
<path d="M1.0037 14.5665L2.33899 19.2512L7.02128 17.9255L4.83922 14.4922L1.0037 14.5665Z" fill="#E27625" stroke="#E27625" stroke-linecap="round" stroke-linejoin="round"/>
<path d="M6.76823 8.69211L5.46551 10.7075L10.1077 10.9254L9.95239 5.7998L6.76823 8.69211Z" fill="#E27625" stroke="#E27625" stroke-linecap="round" stroke-linejoin="round"/>
<path d="M15.97 8.69249L12.7382 5.74121L12.6305 10.9258L17.2727 10.7079L15.97 8.69249Z" fill="#E27625" stroke="#E27625" stroke-linecap="round" stroke-linejoin="round"/>
<path d="M7.02127 17.9262L9.82964 16.5339L7.41209 14.6006L7.02127 17.9262Z" fill="#E27625" stroke="#E27625" stroke-linecap="round" stroke-linejoin="round"/>
<path d="M12.9086 16.5339L15.7094 17.9262L15.3261 14.6006L12.9086 16.5339Z" fill="#E27625" stroke="#E27625" stroke-linecap="round" stroke-linejoin="round"/>
<path d="M15.7095 17.9255L12.9086 16.5332L13.1366 18.3999L13.1115 19.1922L15.7095 17.9255Z" fill="#D5BFB2" stroke="#D5BFB2" stroke-linecap="round" stroke-linejoin="round"/>
<path d="M7.02128 17.9255L9.62673 19.1922L9.6117 18.3999L9.82965 16.5332L7.02128 17.9255Z" fill="#D5BFB2" stroke="#D5BFB2" stroke-linecap="round" stroke-linejoin="round"/>
<path d="M9.67688 13.3669L7.347 12.6669L8.99044 11.8926L9.67688 13.3669Z" fill="#233447" stroke="#233447" stroke-linecap="round" stroke-linejoin="round"/>
<path d="M13.0639 13.3669L13.7478 11.8926L15.3987 12.6669L13.0639 13.3669Z" fill="#233447" stroke="#233447" stroke-linecap="round" stroke-linejoin="round"/>
<path d="M7.02126 17.9255L7.42962 14.4922L4.8392 14.5665L7.02126 17.9255Z" fill="#CC6228" stroke="#CC6228" stroke-linecap="round" stroke-linejoin="round"/>
<path d="M15.3086 14.4922L15.7094 17.9255L17.899 14.5665L15.3086 14.4922Z" fill="#CC6228" stroke="#CC6228" stroke-linecap="round" stroke-linejoin="round"/>
<path d="M17.2727 10.708L12.6305 10.926L13.0639 13.367L13.7478 11.8926L15.3988 12.667L17.2727 10.708Z" fill="#CC6228" stroke="#CC6228" stroke-linecap="round" stroke-linejoin="round"/>
<path d="M7.34694 12.667L8.99038 11.8926L9.67681 13.367L10.1077 10.926L5.46551 10.708L7.34694 12.667Z" fill="#CC6228" stroke="#CC6228" stroke-linecap="round" stroke-linejoin="round"/>
<path d="M5.46552 10.708L7.41209 14.6003L7.34695 12.667L5.46552 10.708Z" fill="#E27525" stroke="#E27525" stroke-linecap="round" stroke-linejoin="round"/>
<path d="M15.3988 12.667L15.3261 14.6003L17.2727 10.708L15.3988 12.667Z" fill="#E27525" stroke="#E27525" stroke-linecap="round" stroke-linejoin="round"/>
<path d="M10.1077 10.9258L9.67684 13.3668L10.2205 16.2514L10.3432 12.4489L10.1077 10.9258Z" fill="#E27525" stroke="#E27525" stroke-linecap="round" stroke-linejoin="round"/>
<path d="M12.6304 10.9258L12.4025 12.4412L12.5177 16.2514L13.0639 13.3668L12.6304 10.9258Z" fill="#E27525" stroke="#E27525" stroke-linecap="round" stroke-linejoin="round"/>
<path d="M13.0639 13.366L12.5178 16.2506L12.9086 16.5327L15.3262 14.5993L15.3988 12.666L13.0639 13.366Z" fill="#F5841F" stroke="#F5841F" stroke-linecap="round" stroke-linejoin="round"/>
<path d="M7.347 12.666L7.41214 14.5993L9.8297 16.5327L10.2205 16.2506L9.67688 13.366L7.347 12.666Z" fill="#F5841F" stroke="#F5841F" stroke-linecap="round" stroke-linejoin="round"/>
<path d="M13.1115 19.1924L13.1366 18.4001L12.9236 18.2181H9.81462L9.6117 18.4001L9.62673 19.1924L7.02128 17.9258L7.93319 18.6924L9.78205 20.0001H12.9487L14.8051 18.6924L15.7094 17.9258L13.1115 19.1924Z" fill="#C0AC9D" stroke="#C0AC9D" stroke-linecap="round" stroke-linejoin="round"/>
<path d="M12.9086 16.534L12.5178 16.252H10.2205L9.82967 16.534L9.61171 18.4007L9.81464 18.2186H12.9236L13.1366 18.4007L12.9086 16.534Z" fill="#161616" stroke="#161616" stroke-linecap="round" stroke-linejoin="round"/>
<path d="M21.2135 6.65897L21.9049 3.20769L20.8627 0L12.9086 6.04103L15.97 8.69231L20.294 9.98462L21.246 8.84103L20.8302 8.53333L21.489 7.91795L20.9855 7.51538L21.6444 7L21.2135 6.65897Z" fill="#763E1A" stroke="#763E1A" stroke-linecap="round" stroke-linejoin="round"/>
<path d="M0.833332 3.20769L1.5348 6.65897L1.08636 7L1.75275 7.51538L1.2492 7.91795L1.90808 8.53333L1.49221 8.84103L2.44671 9.98462L6.76824 8.69231L9.82965 6.04103L1.87551 0L0.833332 3.20769Z" fill="#763E1A" stroke="#763E1A" stroke-linecap="round" stroke-linejoin="round"/>
<path d="M20.294 9.98469L15.97 8.69238L17.2727 10.7078L15.3261 14.6001L17.899 14.5667H21.742L20.294 9.98469Z" fill="#F5841F" stroke="#F5841F" stroke-linecap="round" stroke-linejoin="round"/>
<path d="M6.76828 8.69238L2.44674 9.98469L1.00372 14.5667H4.83924L7.41212 14.6001L5.46555 10.7078L6.76828 8.69238Z" fill="#F5841F" stroke="#F5841F" stroke-linecap="round" stroke-linejoin="round"/>
<path d="M12.6305 10.9254L12.9086 6.04077L14.1612 2.56641H8.57706L9.82968 6.04077L10.1078 10.9254L10.213 12.4587L10.2205 16.251H12.5178L12.5253 12.4587L12.6305 10.9254Z" fill="#F5841F" stroke="#F5841F" stroke-linecap="round" stroke-linejoin="round"/>
</svg>
