<svg width="45" height="45" viewBox="0 0 45 45" fill="none" xmlns="http://www.w3.org/2000/svg">
<path fill-rule="evenodd" clip-rule="evenodd" d="M14.554 40.8337H30.4428C36.6584 40.8337 40.8327 36.4738 40.8327 29.9863V15.0143C40.8327 8.52687 36.6584 4.16699 30.4447 4.16699H14.554C8.34032 4.16699 4.16602 8.52687 4.16602 15.0143V29.9863C4.16602 36.4738 8.34032 40.8337 14.554 40.8337ZM16.0792 20.6667C13.5517 20.6667 11.498 18.6102 11.498 16.0834C11.498 13.5566 13.5517 11.5001 16.0792 11.5001C18.6049 11.5001 20.6605 13.5566 20.6605 16.0834C20.6605 18.6102 18.6049 20.6667 16.0792 20.6667ZM36.8367 27.8788C37.4506 29.4529 37.1317 31.3449 36.4754 32.9039C35.6974 34.7581 34.2078 36.1619 32.331 36.7749C31.4978 37.0474 30.6239 37.1666 29.7519 37.1666H14.3011C12.7635 37.1666 11.403 36.7976 10.2876 36.1108C9.58892 35.6795 9.4654 34.6843 9.98344 34.0391C10.8499 32.9607 11.7053 31.8785 12.5681 30.7868C14.2126 28.698 15.3205 28.0926 16.552 28.6243C17.0516 28.8437 17.5531 29.1729 18.0693 29.521C19.4446 30.4557 21.3563 31.7403 23.8746 30.346C25.598 29.3808 26.5975 27.7251 27.4679 26.2834L27.4825 26.2593C27.5441 26.1583 27.6051 26.0573 27.666 25.9566L27.6663 25.9561C27.9588 25.4721 28.2474 24.9946 28.5739 24.5546C28.9831 24.004 30.5004 22.2823 32.4656 23.5083C33.7174 24.2803 34.7701 25.3246 35.8965 26.4428C36.326 26.8704 36.6321 27.3566 36.8367 27.8788Z" fill="#8DA9C4"/>
</svg>
